<svg width="37" height="40" viewBox="0 0 37 40" fill="none" xmlns="http://www.w3.org/2000/svg">
<path d="M18.6803 0C8.78371 0 0.751709 8.79875 0.751709 19.6401C0.751709 30.4814 8.78371 39.2801 18.6803 39.2801C28.5769 39.2801 36.6089 30.4814 36.6089 19.6401C36.6089 8.79875 28.5769 0 18.6803 0ZM18.6803 5.89202C21.6564 5.89202 24.0589 8.52379 24.0589 11.784C24.0589 15.0443 21.6564 17.6761 18.6803 17.6761C15.7041 17.6761 13.3017 15.0443 13.3017 11.784C13.3017 8.52379 15.7041 5.89202 18.6803 5.89202ZM18.6803 33.7809C14.1981 33.7809 10.2359 31.267 7.92314 27.4568C7.97693 23.5484 15.0946 21.4077 18.6803 21.4077C22.2481 21.4077 29.3836 23.5484 29.4374 27.4568C27.1246 31.267 23.1624 33.7809 18.6803 33.7809Z" fill="#494a4d"/>
</svg>
